<svg viewBox="0 0 1056 992" version="1.1" xmlns="http://www.w3.org/2000/svg">
    <path d="M0 0 C2.64869506 -0.00379218 5.29734594 -0.00914931 7.94602966 -0.01637268 C14.33911072 -0.03017205 20.73199178 -0.02285018 27.12506299 -0.0076971 C34.59216668 0.00931665 42.05922267 0.00593385 49.52633978 0.00220882 C62.8579319 -0.00364473 76.18942901 0.01040603 89.52099609 0.03515625 C102.41914423 0.05909864 115.31716565 0.066146 128.21533203 0.05566406 C142.31419754 0.04422663 156.41300472 0.04235735 170.51186955 0.05676216 C172.01800545 0.05828778 173.52414135 0.05980813 175.03027725 0.06132317 C175.77104571 0.06208098 176.51181417 0.06283879 177.27503016 0.06361957 C182.46498746 0.06833834 187.65491847 0.06652838 192.84487534 0.06225777 C199.17540588 0.05730563 205.50581726 0.06342886 211.83632068 0.08315206 C215.05856589 0.09294795 218.28059593 0.09657759 221.5028553 0.09025955 C255.49532049 0.03199376 283.9447101 8.51777439 308.54248047 33.01000977 C331.73182726 57.12282612 337.45605859 87.80200207 337.36523438 120.05761719 C337.36930698 122.50202671 337.37465271 124.94643438 337.38116455 127.39083862 C337.39335654 133.30531255 337.39166514 139.21968124 337.38292663 145.13415209 C337.37611201 149.94864311 337.37524956 154.76310219 337.37849808 159.57759666 C337.37895778 160.26655876 337.37941748 160.95552086 337.3798911 161.6653606 C337.38085043 163.06563417 337.38182307 164.46590773 337.38280888 165.86618128 C337.39133637 178.95613453 337.38157132 192.04602447 337.36540778 205.13596734 C337.352016 216.32684197 337.35432842 227.51762316 337.36816406 238.70849609 C337.38428237 251.75150673 337.39050325 264.79446199 337.38132727 277.8374812 C337.38037178 279.23311213 337.37942867 280.62874306 337.37849808 282.02437401 C337.37803525 282.71077235 337.37757242 283.3971707 337.37709557 284.10436899 C337.37452367 288.90216152 337.37883761 293.69991845 337.38593674 298.49770546 C337.39531601 304.97805157 337.38847156 311.45826408 337.37125397 317.93859482 C337.36732171 320.30269647 337.36836643 322.66681308 337.37504196 325.03090858 C337.41990766 342.54891278 336.2351413 359.40509833 331.28955078 376.31420898 C331.03536377 377.18746826 330.78117676 378.06072754 330.51928711 378.96044922 C328.06670732 386.93041592 324.6533895 393.5952494 319.97705078 400.50170898 C318.97738281 402.00024414 318.97738281 402.00024414 317.95751953 403.52905273 C301.78990456 426.35568537 278.2585117 442.46346841 250.57925677 447.48168993 C239.28292319 449.30220941 227.81958618 448.93669608 216.41162109 448.92163086 C213.7634058 448.92898339 211.11521561 448.93748254 208.4670105 448.94729614 C202.05804887 448.96819986 195.64917797 448.97289975 189.24018624 448.97110826 C184.02289335 448.96979305 178.8056284 448.97364313 173.58834076 448.98103333 C157.13154934 449.00389649 140.67484402 449.0094545 124.21803984 449.00151902 C111.28723996 448.99594726 98.35663843 449.01676425 85.42588487 449.04987949 C72.09673203 449.0837458 58.76767387 449.09876886 45.43847728 449.09416246 C37.97593256 449.0919309 30.51357111 449.09696665 23.05106354 449.12205505 C16.69750925 449.14323634 10.34423876 449.14649577 3.99067214 449.12775546 C0.75946042 449.11869987 -2.47112427 449.11993189 -5.70231247 449.13811111 C-23.38070333 449.23062695 -41.53379638 448.98639907 -57.02294922 439.50170898 C-58.18181641 439.00928711 -59.34068359 438.51686523 -60.53466797 438.00952148 C-78.03362696 430.44558176 -92.85839591 416.06056055 -102.51513672 399.84936523 C-103.86639075 397.53670923 -103.86639075 397.53670923 -105.49609375 396.1159668 C-108.36438023 393.08348995 -109.5114364 389.02547308 -111.02294922 385.18920898 C-111.3781665 384.29290771 -111.73338379 383.39660645 -112.09936523 382.47314453 C-117.33864302 368.886996 -119.1729099 355.31438121 -119.17012024 340.81747437 C-119.17379693 339.7765396 -119.17747362 338.73560483 -119.18126172 337.66312659 C-119.19222879 334.19313722 -119.19613055 330.72317787 -119.19995117 327.25317383 C-119.20622131 324.75717577 -119.21286859 322.26117863 -119.21986389 319.7651825 C-119.23903653 312.28785189 -119.24968559 304.81052926 -119.25859168 297.33318132 C-119.26210598 294.50908097 -119.26625215 291.68498171 -119.27043134 288.86088227 C-119.28889448 276.38335522 -119.30463877 263.90582814 -119.31232929 251.42828941 C-119.31423875 248.38017145 -119.31615915 245.33205349 -119.31811523 242.28393555 C-119.31859897 241.5264702 -119.31908271 240.76900486 -119.31958111 239.98858602 C-119.32786257 227.74734826 -119.35317013 215.5062088 -119.38569591 203.26501386 C-119.41891908 190.6570676 -119.43679185 178.04917103 -119.43997353 165.44118083 C-119.44212489 158.37864681 -119.4506691 151.31625604 -119.47643471 144.25376511 C-119.50066601 137.5969991 -119.50387279 130.94053296 -119.49367332 124.2837162 C-119.49318239 121.85839926 -119.49936995 119.43306891 -119.51322937 117.00779152 C-119.5771221 105.15073228 -119.22339483 93.63462053 -117.23576355 81.92373657 C-117.07959385 81.00063041 -116.92342415 80.07752425 -116.76252204 79.12644517 C-115.10225778 70.37700033 -111.54274161 63.10198124 -107.02294922 55.50170898 C-106.49314453 54.55038086 -105.96333984 53.59905273 -105.41748047 52.61889648 C-93.92775865 32.47337887 -76.04928091 16.91611165 -55.02294922 7.50170898 C-53.99086397 7.0208059 -52.95877872 6.53990282 -51.89541817 6.04442692 C-35.74665017 -0.81457526 -17.1653747 -0.07084143 0 0 Z " fill="#DF620B" transform="translate(416.02294921875,264.498291015625)" />
    <path d="M0 0 C2.31252664 -0.00217934 4.62456949 -0.02036832 6.93701172 -0.03930664 C19.73836639 -0.09016046 31.5912105 1.44769025 43.89404297 5.12280273 C45.20791992 5.50082031 45.20791992 5.50082031 46.54833984 5.88647461 C67.37122947 11.96694499 85.35858328 22.12922225 101.08154297 37.18530273 C102.31324219 38.30485352 102.31324219 38.30485352 103.56982422 39.44702148 C115.27193319 50.45755948 126.96177237 67.15899318 129.69482422 83.26342773 C130.06218204 85.45878102 130.06218204 85.45878102 131.51904297 88.37280273 C140.27985057 107.88551058 138.42280142 133.31941814 138.33154297 154.12280273 C138.32810883 155.40404022 138.32467468 156.68527771 138.32113647 158.00534058 C138.29159739 168.39920481 138.19688088 178.79207189 138.08154297 189.18530273 C138.07196815 190.06628128 138.06239334 190.94725983 138.05252838 191.85493469 C137.91463538 204.39008628 137.73082043 216.92380734 137.49768066 229.45755005 C137.42668229 233.30013772 137.36605101 237.14267087 137.31433105 240.98556519 C137.25173374 245.55950308 137.16493591 250.13239373 137.06054497 254.70556259 C137.02567838 256.39409589 136.99870816 258.08281499 136.98051643 259.77161026 C136.81719617 274.0368533 134.42714605 286.52687364 124.08154297 297.18530273 C116.45089294 304.20261446 107.41076373 306.88817821 97.17138672 306.49389648 C88.53958915 305.63180798 82.18120261 301.63275462 74.99951172 297.02514648 C72.72514811 295.59110999 70.51219025 294.32117422 68.08154297 293.18530273 C68.08154297 292.52530273 68.08154297 291.86530273 68.08154297 291.18530273 C65.08098213 291.10363424 62.08268907 291.04448723 59.08154297 290.99780273 C58.24236328 290.97266602 57.40318359 290.9475293 56.53857422 290.92163086 C49.08131074 290.83491849 43.12838713 292.39446445 36.95654297 296.81030273 C35.83892578 297.58180664 35.83892578 297.58180664 34.69873047 298.36889648 C33.40322266 299.26801758 33.40322266 299.26801758 32.08154297 300.18530273 C19.39830704 308.84338874 9.28311223 314.52169557 -6.63330078 311.70483398 C-13.83325986 309.57191378 -19.2283335 305.13765402 -25.08349609 300.62866211 C-35.19778578 292.84695944 -42.76086088 289.52329059 -55.91845703 291.18530273 C-62.24682767 292.92853446 -67.93686555 296.18807001 -73.66845703 299.31030273 C-75.32771566 300.21279625 -76.98910115 301.11139306 -78.65283203 302.00561523 C-79.37696289 302.40022949 -80.10109375 302.79484375 -80.84716797 303.20141602 C-89.05324005 307.09939698 -99.90830756 305.97380395 -108.34814453 303.35327148 C-115.81128185 299.96196745 -121.50674027 293.54232338 -124.91845703 286.18530273 C-128.53046778 276.19702871 -129.57670387 266.79997446 -129.74658203 256.25952148 C-129.78447434 254.72995495 -129.82382215 253.20042389 -129.86450195 251.67092896 C-129.96796253 247.5847671 -130.04757994 243.49848442 -130.12104797 239.41168594 C-130.16871808 236.85882307 -130.22303019 234.3061884 -130.27966309 231.75350952 C-130.80223582 208.19462926 -131.11418492 184.63267401 -131.16343689 161.06796646 C-131.16839901 159.02172809 -131.17630366 156.97551766 -131.18469238 154.92929077 C-131.24038877 136.70546136 -130.77908212 119.12472078 -126.61767578 101.32202148 C-126.00208069 98.56044127 -125.60014062 95.86175469 -125.23095703 93.06030273 C-122.62334657 78.59020209 -115.48856627 64.96730016 -106.91845703 53.18530273 C-106.30615234 52.33194336 -105.69384766 51.47858398 -105.06298828 50.59936523 C-86.8057696 26.54187878 -62.12897964 11.23258297 -33.16845703 3.43530273 C-32.38825195 3.22429932 -31.60804688 3.0132959 -30.80419922 2.79589844 C-20.57863908 0.15945218 -10.5072824 -0.00110533 0 0 Z " fill="#F1F1F1" transform="translate(519.91845703125,330.814697265625)" />
</svg>
