<svg viewBox="0 0 540 528" xmlns="http://www.w3.org/2000/svg">
    <g transform="translate(0,528) scale(0.1,-0.1)">
        <path fill="white" d="M1245 4864 c-44 -8 -94 -21 -112 -29 -17 -8 -34 -15 -37 -15 -3 0 -41 -17 -84 -37 -197 -94 -380 -270 -476 -458 -20 -38 -39 -74 -44 -80 -20 -28 -63 -191 -72 -275 -14 -134 -13 -2532 1 -2656 14 -129 42 -216 116 -359 50 -97 103 -166 197 -261 68 -67 209 -174 231 -174 3 0 18 -8 32 -17 47 -31 156 -73 218 -84 33 -6 74 -15 91 -20 41 -12 2727 -12 2768 0 17 5 63 15 101 22 74 12 118 28 230 86 198 101 402 317 481 509 9 21 22 53 29 69 8 17 21 64 30 105 9 41 19 89 23 105 4 17 7 633 7 1370 l0 1340 -23 85 c-13 47 -32 104 -43 127 -10 24 -19 45 -19 48 0 17 -101 179 -146 236 -85 104 -218 213 -331 269 -86 43 -219 88 -293 100 -42 6 -544 10 -1430 9 -1137 -1 -1378 -3 -1445 -15z"/>
    </g>
</svg>
