<svg viewBox="0 0 540 528" xmlns="http://www.w3.org/2000/svg" preserveAspectRatio="xMidYMid meet">
    <g transform="translate(0,528) scale(0.1,-0.1)" stroke="none">
        <path fill="#f07119" d="M1245 4864 c-44 -8 -94 -21 -112 -29 -17 -8 -34 -15 -37 -15 -3 0 -41 -17 -84 -37 -197 -94 -380 -270 -476 -458 -20 -38 -39 -74 -44 -80 -20 -28 -63 -191 -72 -275 -14 -134 -13 -2532 1 -2656 14 -129 42 -216 116 -359 50 -97 103 -166 197 -261 68 -67 209 -174 231 -174 3 0 18 -8 32 -17 47 -31 156 -73 218 -84 33 -6 74 -15 91 -20 41 -12 2727 -12 2768 0 17 5 63 15 101 22 74 12 118 28 230 86 198 101 402 317 481 509 9 21 22 53 29 69 8 17 21 64 30 105 9 41 19 89 23 105 4 17 7 633 7 1370 l0 1340 -23 85 c-13 47 -32 104 -43 127 -10 24 -19 45 -19 48 0 17 -101 179 -146 236 -85 104 -218 213 -331 269 -86 43 -219 88 -293 100 -42 6 -544 10 -1430 9 -1137 -1 -1378 -3 -1445 -15z" />
        <path fill="#ffffff" d="m4193 4841 c48 -12 87 -27 87 -32 0 -4 -7 -5 -17 -2 -11 4 -14 3 -9 -6 5 -7 19 -10 34 -7 30 7 46 -1 49 -24 1 -8 5 -25 9 -38 5 -18 3 -21 -10 -16 -10 4 -16 1 -16 -7 0 -7 3 -9 7 -6 3 4 12 2 20 -4 10 -9 13 -8 13 1 0 9 6 8 19 -4 17 -16 19 -16 23 2 4 13 -1 18 -15 19 -27 3 -32 10 -17 28 7 9 8 15 2 15 -6 0 -12 -6 -15 -12 -3 -7 -4 -3 -4 10 1 23 12 29 22 12 3 -5 14 -10 23 -10 26 0 150 -87 236 -165 84 -77 135 -139 185 -228 28 -51 30 -61 19 -75 -8 -10 -20 -30 -26 -46 -16 -35 -26 -29 -13 7 6 16 7 29 1 32 -5 3 -7 13 -4 23 5 15 4 15 -8 2 -16 -19 -38 -24 -38 -9 0 6 -7 8 -16 5 -12 -4 -15 -2 -10 9 3 8 1 15 -4 15 -6 0 -10 -6 -10 -14 0 -13 -27 -31 -42 -28 -5 1 -8 -2 -8 -7 0 -5 -8 -8 -17 -6 -10 2 -25 4 -34 4 -9 1 -19 8 -23 16 -4 13 -2 13 14 5 25 -14 30 -13 24 4 -3 8 -1 21 5 28 46 56 64 81 55 75 -8 -4 -11 2 -10 18 0 14 7 27 14 30 6 2 12 9 12 15 0 5 -16 1 -35 -10 -26 -15 -33 -16 -28 -5 6 17 -5 19 -27 6 -40 -26 -26 31 16 62 13 10 29 15 35 12 6 -5 4 -11 -6 -19 -14 -10 -13 -12 9 -14 24 -2 28 10 12 36 -9 16 -56 8 -68 -11 -5 -8 -8 -7 -8 3 0 9 7 26 16 38 8 12 11 22 5 22 -5 0 -16 -9 -24 -20 -8 -11 -17 -17 -21 -13 -4 4 -11 1 -16 -7 -7 -11 -10 -11 -10 -2 0 7 13 21 30 30 16 9 30 20 30 23 0 12 -31 32 -38 24 -4 -4 -1 -10 6 -12 10 -4 8 -9 -5 -19 -24 -18 -36 -17 -29 2 3 8 2 12 -4 9 -6 -3 -10 -2 -10 4 0 6 9 15 21 21 29 16 18 23 -16 10 -18 -7 -25 -15 -21 -25 3 -8 1 -15 -4 -15 -6 0 -10 -4 -10 -10 0 -5 7 -7 15 -4 12 5 15 -3 15 -40 0 -39 -3 -45 -17 -40 -15 5 -15 4 -3 -4 10 -8 18 -8 27 0 8 7 13 7 13 0 0 -16 -28 -34 -59 -37 -16 -1 -34 -6 -41 -10 -8 -5 -11 -4 -7 2 4 6 0 13 -8 16 -9 4 -12 1 -9 -7 3 -7 -2 -13 -11 -13 -8 0 -15 7 -15 15 0 11 -3 12 -13 3 -8 -6 -23 -9 -35 -6 -14 2 -22 -1 -22 -11 0 -8 -9 -14 -22 -13 -22 0 -22 1 -3 8 15 6 7 9 -32 12 -29 2 -49 0 -45 -5 3 -5 -5 -7 -16 -4 -13 4 -20 2 -16 -3 3 -6 -11 -10 -33 -9 -73 1 -82 0 -88 -10 -3 -6 -11 -10 -16 -10 -6 0 -7 5 -3 12 5 7 2 9 -8 6 -17 -7 -50 26 -40 38 4 4 2 4 -5 0 -12 -7 -37 27 -27 36 3 3 -7 6 -21 6 -14 0 -25 -4 -25 -9 0 -5 9 -9 21 -9 15 0 19 -5 15 -16 -3 -8 -2 -12 4 -9 6 3 10 -1 10 -9 0 -14 -68 -41 -78 -31 -7 7 42 23 52 17 5 -3 6 0 2 6 -4 6 -13 9 -21 6 -8 -3 -27 7 -42 23 -15 15 -27 26 -26 24 2 -2 -2 -10 -8 -18 -9 -10 -8 -13 2 -13 24 0 -5 -17 -40 -24 -27 -5 -32 -3 -27 9 6 17 4 18 -19 9 -13 -5 -14 -8 -3 -15 10 -7 9 -9 -4 -9 -10 0 -18 -4 -18 -10 0 -5 -9 -10 -21 -10 -16 0 -19 4 -14 21 6 19 5 20 -8 8 -8 -8 -13 -16 -12 -19 9 -14 -45 -3 -63 13 -17 16 -20 16 -25 2 -4 -8 -14 -14 -24 -14 -16 1 -16 2 -1 6 9 2 15 10 12 18 -5 11 -11 11 -31 2 -16 -7 -27 -8 -31 -1 -9 14 -52 25 -52 13 0 -5 7 -9 16 -9 8 0 13 -4 10 -9 -3 -5 -15 -7 -26 -4 -11 3 -17 10 -13 17 4 6 -1 5 -11 -3 -10 -8 -37 -16 -60 -17 -33 -2 -45 2 -54 17 -7 11 -10 24 -7 28 3 5 -2 12 -11 15 -10 4 -13 2 -8 -6 5 -7 2 -9 -9 -5 -11 4 -14 2 -10 -9 8 -20 -2 -17 -32 10 -23 22 -24 25 -8 29 10 3 4 5 -14 6 -17 0 -33 -4 -35 -11 -3 -9 -6 -9 -12 0 -4 7 3 14 19 18 42 10 28 25 -18 19 -34 -5 -44 -3 -44 8 0 11 11 14 44 11 l43 -3 -26 23 -27 23 -44 -25 c-42 -23 -69 -24 -45 0 13 13 -2 48 -21 48 -8 0 -8 -3 2 -9 10 -7 11 -13 2 -30 -15 -27 -25 -27 -18 0 3 13 1 19 -6 16 -7 -2 -11 -12 -11 -20 1 -13 -4 -15 -25 -10 -14 3 -29 11 -33 17 -5 8 -8 7 -8 -2 0 -7 -13 -20 -30 -31 -16 -10 -27 -22 -22 -27 4 -4 -1 -2 -10 5 -14 10 -18 10 -18 1 0 -8 -8 -10 -24 -6 -18 4 -28 1 -36 -11 -8 -12 -13 -14 -16 -6 -3 7 -12 9 -20 6 -20 -7 -17 -24 4 -21 10 2 16 -2 14 -11 -2 -11 0 -12 10 -4 7 6 27 12 44 15 27 4 32 1 32 -17 0 -16 -7 -21 -29 -20 -16 0 -29 3 -29 8 0 9 -50 -2 -67 -15 -17 -13 -63 1 -56 18 6 17 -1 18 -28 3 -16 -8 -18 -13 -9 -24 6 -8 19 -11 28 -8 15 4 15 3 2 -6 -19 -13 -43 -14 -35 -1 3 5 -7 15 -22 23 -35 18 -107 32 -99 19 3 -5 -6 -7 -22 -4 -21 5 -23 7 -8 10 14 3 15 6 6 12 -7 4 -9 13 -6 19 5 8 12 7 22 -4 9 -8 20 -13 25 -10 5 4 9 1 9 -4 0 -20 38 -11 43 9 5 18 2 19 -35 13 -28 -4 -39 -3 -34 5 10 17 -10 24 -24 8 -14 -17 -50 -17 -50 0 0 7 -7 14 -15 16 -13 3 -13 6 0 32 14 26 14 30 -2 42 -10 7 -20 14 -23 14 -33 8 -38 7 -33 -6 3 -8 9 -14 15 -14 5 0 6 -4 3 -10 -3 -6 1 -7 9 -4 9 3 16 2 16 -4 0 -5 -11 -12 -25 -14 -13 -3 -22 -1 -19 4 8 13 -35 48 -52 41 -8 -3 -14 0 -14 6 0 8 -10 6 -29 -5 -17 -10 -27 -22 -24 -27 3 -6 1 -7 -5 -3 -7 4 -12 2 -12 -3 0 -6 8 -11 18 -11 14 0 -15 16 -54 29 -45 15 6 -10 -39 -13 -49 -3 -4 4 -3 12 1 18 10 16 9 30 -3 38 -6 5 -3 8 6 8 9 0 19 -9 22 -19 4 -15 12 -19 38 -17 19 2 40 -2 48 -8 12 -9 13 -8 6 3 -6 11 -4 13 10 7 15 -5 16 -4 5 9 -7 8 -21 13 -30 10 -21 -7 -70 11 -70 25 0 5 5 10 11 10 5 0 7 -4 4 -10 -3 -6 1 -7 10 -4 9 4 13 9 11 12 -3 3 -1 11 4 17 8 9 2 9 -25 1 -19 -6 -35 -15 -35 -19 0 -5 -5 -5 -10 -2 -6 3 -12 0 -15 -7 -3 -8 -18 -15 -33 -16 -24 -1 -25 0 -10 12 13 10 15 15 6 24 -17 17 -31 15 -24 -3 7 -19 -8 -19 -28 0 -9 10 -17 11 -21 5 -4 -6 -12 -7 -18 -3 -6 4 -24 6 -39 5 -16 -1 -28 3 -28 9 0 8 -6 7 -17 -2 -14 -12 -16 -12 -11 1 2 8 20 18 39 21 19 4 27 7 19 8 -39 6 -371 3 -377 -3 -3 -3 2 -6 13 -6 15 0 16 -2 4 -9 -8 -6 -18 -7 -22 -4 -15 9 -36 -17 -32 -40 4 -21 4 -21 -6 1 -8 20 -6 27 12 41 15 13 17 18 7 20 -35 4 -138 6 -134 2 3 -2 0 -10 -6 -18 -9 -10 -8 -13 5 -13 9 0 16 5 16 10 0 6 5 10 10 10 6 0 9 -3 8 -7 -1 -5 2 -18 6 -31 7 -22 8 -22 24 -4 9 10 16 16 15 13 -2 -2 5 -10 15 -17 16 -13 16 -13 0 -14 -10 0 -18 6 -18 13 0 6 -5 4 -11 -5 -5 -10 -21 -18 -35 -18 -14 0 -23 4 -19 10 3 6 -2 13 -12 17 -29 11 -42 28 -32 45 7 12 0 15 -48 14 -46 -1 -57 -5 -64 -21 -7 -20 -10 -18 -13 7 -1 9 -19 12 -63 10 -46 -2 -63 1 -63 10 0 9 -3 9 -8 2 -4 -6 -18 -8 -31 -4 -21 5 -14 9 37 23 67 18 84 21 65 9 -6 -4 23 -7 65 -7 43 -1 208 -2 367 -3 267 -2 680 3 680 7 0 2 8 4 18 6 9 2 17 0 17 -5 0 -5 12 -5 28 -1 15 4 39 4 55 0 18 -5 27 -4 27 4 0 8 3 8 8 2 9 -13 700 -17 708 -4 3 5 12 5 22 0 22 -11 353 -11 346 1 -3 4 2 8 10 8 9 0 16 -5 16 -10 0 -7 6 -7 19 -1 10 6 21 8 23 5 11 -11 98 -13 98 -3 0 8 4 8 13 1 6 -5 21 -6 32 -2 11 4 30 4 43 -1 15 -6 22 -5 23 4 0 9 2 9 6 0 2 -7 13 -13 24 -13 10 0 19 6 19 13 0 8 3 8 8 1 9 -12 92 -12 112 2 10 6 -477 11 -1325 14 l-1340 5 1370 0 1370 -1 88 -23z" />
        <path fill="#222222" d="M1953 3356 c-17 -8 -36 -23 -42 -35 -7 -13 -11 -119 -11 -303 1 -366 -12 -348 232 -348 255 0 251 -7 246 377 l-3 263 -28 27 -27 28 -168 2 c-127 2 -175 -1 -199 -11z M3062 3355 c-57 -25 -62 -52 -62 -342 0 -240 1 -260 20 -291 11 -18 32 -37 46 -42 14 -6 96 -10 182 -10 132 0 162 3 182 17 50 34 49 31 50 336 l0 289 -29 29 -29 29 -164 0 c-118 -1 -172 -5 -196 -15z" />
    </g>
</svg>
