<?xml version="1.0" standalone="no"?>
<!DOCTYPE svg PUBLIC "-//W3C//DTD SVG 20010904//EN"
 "http://www.w3.org/TR/2001/REC-SVG-20010904/DTD/svg10.dtd">
<svg version="1.0" xmlns="http://www.w3.org/2000/svg"
 width="540.000000pt" height="528.000000pt" viewBox="0 0 540.000000 528.000000"
 preserveAspectRatio="xMidYMid meet">

<g transform="translate(0.000000,528.000000) scale(0.100000,-0.100000)"
fill="#000000" stroke="none">
<path d="M1245 4864 c-44 -8 -94 -21 -112 -29 -17 -8 -34 -15 -37 -15 -3 0
-41 -17 -84 -37 -197 -94 -380 -270 -476 -458 -20 -38 -39 -74 -44 -80 -20
-28 -63 -191 -72 -275 -14 -134 -13 -2532 1 -2656 14 -129 42 -216 116 -359
50 -97 103 -166 197 -261 68 -67 209 -174 231 -174 3 0 18 -8 32 -17 47 -31
156 -73 218 -84 33 -6 74 -15 91 -20 41 -12 2727 -12 2768 0 17 5 63 15 101
22 74 12 118 28 230 86 198 101 402 317 481 509 9 21 22 53 29 69 8 17 21 64
30 105 9 41 19 89 23 105 4 17 7 633 7 1370 l0 1340 -23 85 c-13 47 -32 104
-43 127 -10 24 -19 45 -19 48 0 17 -101 179 -146 236 -85 104 -218 213 -331
269 -86 43 -219 88 -293 100 -42 6 -544 10 -1430 9 -1137 -1 -1378 -3 -1445
-15z m2948 -23 c48 -12 87 -27 87 -32 0 -4 -7 -5 -17 -2 -11 4 -14 3 -9 -6 5
-7 19 -10 34 -7 30 7 46 -1 49 -24 1 -8 5 -25 9 -38 5 -18 3 -21 -10 -16 -10
4 -16 1 -16 -7 0 -7 3 -9 7 -6 3 4 12 2 20 -4 10 -9 13 -8 13 1 0 9 6 8 19 -4
17 -16 19 -16 23 2 4 13 -1 18 -15 19 -27 3 -32 10 -17 28 7 9 8 15 2 15 -6 0
-12 -6 -15 -12 -3 -7 -4 -3 -4 10 1 23 12 29 22 12 3 -5 14 -10 23 -10 26 0
150 -87 236 -165 84 -77 135 -139 185 -228 28 -51 30 -61 19 -75 -8 -10 -20
-30 -26 -46 -16 -35 -26 -29 -13 7 6 16 7 29 1 32 -5 3 -7 13 -4 23 5 15 4 15
-8 2 -16 -19 -38 -24 -38 -9 0 6 -7 8 -16 5 -12 -4 -15 -2 -10 9 3 8 1 15 -4
15 -6 0 -10 -6 -10 -14 0 -13 -27 -31 -42 -28 -5 1 -8 -2 -8 -7 0 -5 -8 -8
-17 -6 -10 2 -25 4 -34 4 -9 1 -19 8 -23 16 -4 13 -2 13 14 5 25 -14 30 -13
24 4 -3 8 -1 21 5 28 46 56 64 81 55 75 -8 -4 -11 2 -10 18 0 14 7 27 14 30 6
2 12 9 12 15 0 5 -16 1 -35 -10 -26 -15 -33 -16 -28 -5 6 17 -5 19 -27 6 -40
-26 -26 31 16 62 13 10 29 15 35 12 6 -5 4 -11 -6 -19 -14 -10 -13 -12 9 -14
24 -2 28 10 12 36 -9 16 -56 8 -68 -11 -5 -8 -8 -7 -8 3 0 9 7 26 16 38 8 12
11 22 5 22 -5 0 -16 -9 -24 -20 -8 -11 -17 -17 -21 -13 -4 4 -11 1 -16 -7 -7
-11 -10 -11 -10 -2 0 7 13 21 30 30 16 9 30 20 30 23 0 12 -31 32 -38 24 -4
-4 -1 -10 6 -12 10 -4 8 -9 -5 -19 -24 -18 -36 -17 -29 2 3 8 2 12 -4 9 -6 -3
-10 -2 -10 4 0 6 9 15 21 21 29 16 18 23 -16 10 -18 -7 -25 -15 -21 -25 3 -8
1 -15 -4 -15 -6 0 -10 -4 -10 -10 0 -5 7 -7 15 -4 12 5 15 -3 15 -40 0 -39 -3
-45 -17 -40 -15 5 -15 4 -3 -4 10 -8 18 -8 27 0 8 7 13 7 13 0 0 -16 -28 -34
-59 -37 -16 -1 -34 -6 -41 -10 -8 -5 -11 -4 -7 2 4 6 0 13 -8 16 -9 4 -12 1
-9 -7 3 -7 -2 -13 -11 -13 -8 0 -15 7 -15 15 0 11 -3 12 -13 3 -8 -6 -23 -9
-35 -6 -14 2 -22 -1 -22 -11 0 -8 -9 -14 -22 -13 -22 0 -22 1 -3 8 15 6 7 9
-32 12 -29 2 -49 0 -45 -5 3 -5 -5 -7 -16 -4 -13 4 -20 2 -16 -3 3 -6 -11 -10
-33 -9 -73 1 -82 0 -88 -10 -3 -6 -11 -10 -16 -10 -6 0 -7 5 -3 12 5 7 2 9 -8
6 -17 -7 -50 26 -40 38 4 4 2 4 -5 0 -12 -7 -37 27 -27 36 3 3 -7 6 -21 6 -14
0 -25 -4 -25 -9 0 -5 9 -9 21 -9 15 0 19 -5 15 -16 -3 -8 -2 -12 4 -9 6 3 10
-1 10 -9 0 -14 -68 -41 -78 -31 -7 7 42 23 52 17 5 -3 6 0 2 6 -4 6 -13 9 -21
6 -8 -3 -27 7 -42 23 -15 15 -27 26 -26 24 2 -2 -2 -10 -8 -18 -9 -10 -8 -13
2 -13 24 0 -5 -17 -40 -24 -27 -5 -32 -3 -27 9 6 17 4 18 -19 9 -13 -5 -14 -8
-3 -15 10 -7 9 -9 -4 -9 -10 0 -18 -4 -18 -10 0 -5 -9 -10 -21 -10 -16 0 -19
4 -14 21 6 19 5 20 -8 8 -8 -8 -13 -16 -12 -19 9 -14 -45 -3 -63 13 -17 16
-20 16 -25 2 -4 -8 -14 -14 -24 -14 -16 1 -16 2 -1 6 9 2 15 10 12 18 -5 11
-11 11 -31 2 -16 -7 -27 -8 -31 -1 -9 14 -52 25 -52 13 0 -5 7 -9 16 -9 8 0
13 -4 10 -9 -3 -5 -15 -7 -26 -4 -11 3 -17 10 -13 17 4 6 -1 5 -11 -3 -10 -8
-37 -16 -60 -17 -33 -2 -45 2 -54 17 -7 11 -10 24 -7 28 3 5 -2 12 -11 15 -10
4 -13 2 -8 -6 5 -7 2 -9 -9 -5 -11 4 -14 2 -10 -9 8 -20 -2 -17 -32 10 -23 22
-24 25 -8 29 10 3 4 5 -14 6 -17 0 -33 -4 -35 -11 -3 -9 -6 -9 -12 0 -4 7 3
14 19 18 42 10 28 25 -18 19 -34 -5 -44 -3 -44 8 0 11 11 14 44 11 l43 -3 -26
23 -27 23 -44 -25 c-42 -23 -69 -24 -45 0 13 13 -2 48 -21 48 -8 0 -8 -3 2 -9
10 -7 11 -13 2 -30 -15 -27 -25 -27 -18 0 3 13 1 19 -6 16 -7 -2 -11 -12 -11
-20 1 -13 -4 -15 -25 -10 -14 3 -29 11 -33 17 -5 8 -8 7 -8 -2 0 -7 -13 -20
-30 -31 -16 -10 -27 -22 -22 -27 4 -4 -1 -2 -10 5 -14 10 -18 10 -18 1 0 -8
-8 -10 -24 -6 -18 4 -28 1 -36 -11 -8 -12 -13 -14 -16 -6 -3 7 -12 9 -20 6
-20 -7 -17 -24 4 -21 10 2 16 -2 14 -11 -2 -11 0 -12 10 -4 7 6 27 12 44 15
27 4 32 1 32 -17 0 -16 -7 -21 -29 -20 -16 0 -29 3 -29 8 0 9 -50 -2 -67 -15
-17 -13 -63 1 -56 18 6 17 -1 18 -28 3 -16 -8 -18 -13 -9 -24 6 -8 19 -11 28
-8 15 4 15 3 2 -6 -19 -13 -43 -14 -35 -1 3 5 -7 15 -22 23 -35 18 -107 32
-99 19 3 -5 -6 -7 -22 -4 -21 5 -23 7 -8 10 14 3 15 6 6 12 -7 4 -9 13 -6 19
5 8 12 7 22 -4 9 -8 20 -13 25 -10 5 4 9 1 9 -4 0 -20 38 -11 43 9 5 18 2 19
-35 13 -28 -4 -39 -3 -34 5 10 17 -10 24 -24 8 -14 -17 -50 -17 -50 0 0 7 -7
14 -15 16 -13 3 -13 6 0 32 14 26 14 30 -2 42 -10 7 -20 14 -23 14 -33 8 -38
7 -33 -6 3 -8 9 -14 15 -14 5 0 6 -4 3 -10 -3 -6 1 -7 9 -4 9 3 16 2 16 -4 0
-5 -11 -12 -25 -14 -13 -3 -22 -1 -19 4 8 13 -35 48 -52 41 -8 -3 -14 0 -14 6
0 8 -10 6 -29 -5 -17 -10 -27 -22 -24 -27 3 -6 1 -7 -5 -3 -7 4 -12 2 -12 -3
0 -6 8 -11 18 -11 14 0 15 -2 2 -10 -21 -13 -44 8 -29 26 9 11 9 18 0 28 -13
16 -54 29 -45 15 6 -10 -39 -13 -49 -3 -4 4 -3 12 1 18 10 16 9 30 -3 38 -6 5
-3 8 6 8 9 0 19 -9 22 -19 4 -15 12 -19 38 -17 19 2 40 -2 48 -8 12 -9 13 -8
6 3 -6 11 -4 13 10 7 15 -5 16 -4 5 9 -7 8 -21 13 -30 10 -21 -7 -70 11 -70
25 0 5 5 10 11 10 5 0 7 -4 4 -10 -3 -6 1 -7 10 -4 9 4 13 9 11 12 -3 3 -1 11
4 17 8 9 2 9 -25 1 -19 -6 -35 -15 -35 -19 0 -5 -5 -5 -10 -2 -6 3 -12 0 -15
-7 -3 -8 -18 -15 -33 -16 -24 -1 -25 0 -10 12 13 10 15 15 6 24 -17 17 -31 15
-24 -3 7 -19 -8 -19 -28 0 -9 10 -17 11 -21 5 -4 -6 -12 -7 -18 -3 -6 4 -24 6
-39 5 -16 -1 -28 3 -28 9 0 8 -6 7 -17 -2 -14 -12 -16 -12 -11 1 2 8 20 18 39
21 19 4 27 7 19 8 -39 6 -371 3 -377 -3 -3 -3 2 -6 13 -6 15 0 16 -2 4 -9 -8
-6 -18 -7 -22 -4 -15 9 -36 -17 -32 -40 4 -21 4 -21 -6 1 -8 20 -6 27 12 41
15 13 17 18 7 20 -35 4 -138 6 -134 2 3 -2 0 -10 -6 -18 -9 -10 -8 -13 5 -13
9 0 16 5 16 10 0 6 5 10 10 10 6 0 9 -3 8 -7 -1 -5 2 -18 6 -31 7 -22 8 -22
24 -4 9 10 16 16 15 13 -2 -2 5 -10 15 -17 16 -13 16 -13 0 -14 -10 0 -18 6
-18 13 0 6 -5 4 -11 -5 -5 -10 -21 -18 -35 -18 -14 0 -23 4 -19 10 3 6 -2 13
-12 17 -29 11 -42 28 -32 45 7 12 0 15 -48 14 -46 -1 -57 -5 -64 -21 -7 -20
-10 -18 -13 7 -1 9 -19 12 -63 10 -46 -2 -63 1 -63 10 0 9 -3 9 -8 2 -4 -6
-18 -8 -31 -4 -21 5 -14 9 37 23 67 18 84 21 65 9 -6 -4 23 -7 65 -7 43 -1
208 -2 367 -3 267 -2 680 3 680 7 0 2 8 4 18 6 9 2 17 0 17 -5 0 -5 12 -5 28
-1 15 4 39 4 55 0 18 -5 27 -4 27 4 0 8 3 8 8 2 9 -13 700 -17 708 -4 3 5 12
5 22 0 22 -11 353 -11 346 1 -3 4 2 8 10 8 9 0 16 -5 16 -10 0 -7 6 -7 19 -1
10 6 21 8 23 5 11 -11 98 -13 98 -3 0 8 4 8 13 1 6 -5 21 -6 32 -2 11 4 30 4
43 -1 15 -6 22 -5 23 4 0 9 2 9 6 0 2 -7 13 -13 24 -13 10 0 19 6 19 13 0 8 3
8 8 1 9 -12 92 -12 112 2 10 6 -477 11 -1325 14 l-1340 5 1370 0 1370 -1 88
-23z m-2513 -51 c0 -5 -5 -10 -11 -10 -5 0 -7 5 -4 10 3 6 8 10 11 10 2 0 4
-4 4 -10z m-600 -40 c3 -1 9 -2 13 -1 5 1 6 -3 2 -9 -3 -5 -17 -10 -31 -10
-13 0 -24 -5 -24 -11 0 -8 -6 -7 -17 2 -15 12 -16 12 -11 -3 5 -11 0 -18 -13
-21 -11 -3 -19 -14 -19 -25 0 -12 -3 -23 -7 -25 -5 -3 -8 10 -8 28 0 18 3 31
7 29 4 -2 9 0 13 6 3 6 -1 13 -9 16 -29 11 -16 26 19 22 19 -2 35 -1 35 2 0 6
36 5 50 0z m266 -2 c4 -7 4 -10 -1 -6 -4 4 -14 3 -22 -3 -8 -8 -13 -8 -13 -1
0 6 6 13 13 15 6 3 13 6 14 6 1 1 5 -5 9 -11z m34 -2 c0 -3 -4 -8 -10 -11 -5
-3 -10 -1 -10 4 0 6 5 11 10 11 6 0 10 -2 10 -4z m629 -18 c-6 -12 -21 -18
-42 -17 -18 0 -26 3 -19 6 6 2 12 11 12 19 0 10 9 14 29 12 25 -2 28 -5 20
-20z m40 -5 c-6 -7 -15 -10 -20 -7 -13 8 -3 21 15 21 12 0 13 -4 5 -14z
m-1108 -17 c-7 -9 -22 -18 -33 -22 -19 -6 -19 -6 -1 -19 20 -15 16 -24 -15
-30 -39 -7 -60 -25 -67 -56 -6 -24 -11 -30 -30 -27 -12 1 -30 -3 -39 -11 -19
-16 -20 -11 -5 23 7 14 16 23 21 20 5 -3 21 6 35 20 14 14 32 26 41 26 9 0 13
7 9 20 -4 15 6 27 41 50 46 30 65 33 43 6z m629 -7 c0 8 2 12 5 9 3 -3 2 -13
-1 -22 -5 -14 -9 -15 -15 -4 -5 7 -9 18 -9 23 0 6 5 3 10 -5 8 -12 10 -12 10
-1z m-134 -26 c-10 -10 -19 5 -10 18 6 11 8 11 12 0 2 -7 1 -15 -2 -18z m506
20 c-6 -2 -10 -9 -6 -14 3 -5 0 -9 -5 -9 -12 0 -14 13 -4 23 3 4 11 7 17 6 6
0 5 -3 -2 -6z m38 -2 c0 -5 15 -6 33 -1 27 6 97 6 140 1 14 -2 7 -21 -9 -21
-9 0 -14 -6 -11 -12 2 -7 10 -12 16 -10 15 3 14 -15 -1 -20 -13 -5 -20 -38 -8
-38 5 0 10 5 12 11 2 7 12 7 32 -1 18 -7 33 -7 40 -1 6 6 17 6 24 2 9 -5 7
-13 -8 -29 -12 -12 -26 -22 -33 -21 -9 0 -9 2 1 6 6 2 12 9 12 14 0 6 -4 7
-10 4 -5 -3 -10 -1 -10 4 0 6 -4 11 -10 11 -5 0 -10 -8 -10 -17 0 -12 -3 -14
-8 -6 -4 6 -22 13 -40 16 -26 4 -32 2 -28 -8 3 -8 0 -16 -7 -19 -7 -2 -2 -5
10 -5 12 -1 25 4 28 9 8 13 25 13 25 -1 0 -5 -4 -7 -10 -4 -5 3 -10 1 -10 -5
0 -15 -62 -9 -75 7 -5 7 -21 15 -34 18 -26 5 -43 23 -35 37 3 5 11 5 17 1 17
-11 37 -12 37 -3 0 4 9 6 20 3 11 -3 20 -9 20 -13 0 -5 9 -6 20 -3 12 3 18 8
15 11 -2 3 0 11 6 18 6 8 6 14 0 18 -5 4 -12 2 -16 -4 -8 -13 -25 -13 -25 1 0
5 4 8 9 5 5 -3 11 1 14 9 4 9 1 12 -9 8 -8 -3 -20 0 -28 6 -13 11 -26 5 -26
-11 0 -5 4 -7 9 -3 5 3 12 1 16 -5 3 -5 3 -10 -2 -11 -4 0 -16 -2 -26 -4 -13
-2 -17 1 -13 11 3 7 2 13 -2 13 -21 -4 -32 2 -26 14 4 6 -5 1 -19 -12 -15 -14
-25 -27 -22 -29 3 -3 12 3 20 14 14 18 14 17 4 -8 -10 -22 -9 -32 5 -53 10
-15 14 -30 10 -33 -4 -4 -9 -1 -11 6 -4 10 -9 8 -19 -5 -11 -14 -14 -15 -13
-3 3 31 -2 41 -18 38 -11 -2 -19 5 -21 17 -4 16 -2 17 11 7 11 -9 17 -10 22
-2 4 7 -2 14 -14 17 -12 3 -21 10 -21 15 0 6 6 8 14 5 9 -4 16 4 20 24 5 26
26 42 26 20z m-476 -22 c-3 -5 -10 -7 -15 -3 -5 3 -7 10 -3 15 3 5 10 7 15 3
5 -3 7 -10 3 -15z m112 -3 c-6 -24 14 -52 27 -39 4 3 7 1 7 -6 0 -9 -9 -12
-24 -9 -15 3 -27 -2 -35 -14 -8 -14 -8 -18 1 -18 6 0 8 -3 5 -6 -4 -4 -13 -1
-22 6 -8 7 -22 10 -30 6 -10 -3 -14 -2 -9 5 3 6 15 9 25 6 23 -6 37 16 35 55
-1 14 2 24 6 22 4 -3 8 0 8 5 0 6 3 11 6 11 3 0 3 -11 0 -24z m-681 3 c11 -16
1 -19 -13 -3 -7 8 -8 14 -3 14 5 0 13 -5 16 -11z m1415 -29 c0 -5 -2 -10 -4
-10 -3 0 -8 5 -11 10 -3 6 -1 10 4 10 6 0 11 -4 11 -10z m-120 -9 c0 -12 -20
-25 -27 -18 -7 7 6 27 18 27 5 0 9 -4 9 -9z m-350 -32 c0 -3 -6 -6 -14 -6 -7
0 -12 7 -11 16 2 9 4 18 4 21 2 6 21 -23 21 -31z m1145 -19 c3 -5 1 -10 -4
-10 -6 0 -11 5 -11 10 0 6 2 10 4 10 3 0 8 -4 11 -10z m-1097 -13 c17 4 21 2
17 -9 -7 -18 -47 -17 -53 1 -4 11 -6 10 -13 0 -7 -12 -10 -12 -21 0 -8 9 -9
11 -1 7 6 -3 15 -2 18 4 5 8 11 8 19 1 7 -6 22 -8 34 -4z m355 -17 c3 -11 1
-18 -4 -14 -5 3 -9 12 -9 20 0 20 7 17 13 -6z m187 -31 c0 -7 -6 -4 -15 7 -19
25 -19 40 0 20 8 -8 15 -20 15 -27z m-920 11 c0 -5 -5 -10 -11 -10 -5 0 -7 5
-4 10 3 6 8 10 11 10 2 0 4 -4 4 -10z m840 0 c0 -5 -4 -10 -10 -10 -5 0 -10 5
-10 10 0 6 5 10 10 10 6 0 10 -4 10 -10z m-403 -23 c13 0 19 -6 16 -14 -3 -7
0 -13 6 -13 6 0 11 10 11 21 0 16 5 20 20 16 11 -3 20 -1 20 4 0 5 7 9 15 9
24 0 95 -31 95 -42 0 -5 -4 -7 -9 -4 -5 3 -12 -1 -15 -10 -5 -13 -9 -14 -21
-4 -12 10 -13 16 -3 29 11 13 9 13 -7 -1 -13 -11 -25 -14 -34 -8 -9 5 -28 0
-54 -17 -21 -13 -36 -20 -32 -13 4 6 2 16 -4 23 -12 15 -71 21 -71 8 0 -11
-26 -8 -37 4 -4 4 -2 5 6 0 10 -6 12 -4 7 4 -6 9 -11 9 -22 0 -7 -6 -11 -16
-7 -22 3 -6 1 -7 -6 -3 -6 4 -9 12 -6 17 4 5 -3 9 -14 9 -11 0 -23 -5 -27 -11
-4 -8 -9 -7 -15 2 -16 25 -10 28 61 25 39 -1 76 2 83 6 6 4 14 2 18 -3 3 -6
15 -11 26 -12z m511 2 c10 -14 10 -18 -3 -23 -11 -4 -15 1 -15 21 0 14 1 24 3
22 1 -2 8 -11 15 -20z m-1760 -14 c1 -19 -3 -25 -18 -25 -11 0 -20 -6 -21 -12
0 -10 -2 -10 -6 0 -4 10 31 62 42 62 0 0 2 -11 3 -25z m1022 6 c0 -6 -4 -13
-10 -16 -5 -3 -10 1 -10 9 0 9 5 16 10 16 6 0 10 -4 10 -9z m-1091 -33 c-13
-17 -18 -28 -11 -24 14 9 15 -4 2 -38 -7 -19 -6 -24 3 -20 7 2 18 -5 25 -16
12 -20 12 -20 -9 -9 -20 10 -21 9 -16 -11 4 -17 2 -20 -11 -15 -10 4 -23 -2
-35 -17 -10 -13 -17 -16 -14 -8 3 10 -2 16 -14 16 -19 0 -23 -7 -20 -38 1 -9
-4 -20 -11 -24 -7 -4 -10 -4 -6 1 4 4 3 14 -3 21 -8 10 -4 25 17 61 34 59 72
112 98 136 28 26 30 21 5 -15z m1736 22 c3 -5 2 -10 -4 -10 -5 0 -13 5 -16 10
-3 6 -2 10 4 10 5 0 13 -4 16 -10z m225 -4 c0 -2 -7 -7 -16 -10 -8 -3 -12 -2
-9 4 6 10 25 14 25 6z m566 -13 c-2 -11 -12 -18 -24 -19 -25 -1 -28 6 -10 24
18 18 37 15 34 -5z m689 -3 c-3 -5 -1 -10 5 -10 6 0 9 -4 5 -10 -3 -5 -12 -7
-21 -3 -11 4 -12 9 -3 19 13 16 23 19 14 4z m-2138 -22 c-3 -8 -6 -5 -6 6 -1
11 2 17 5 13 3 -3 4 -12 1 -19z m80 16 c-3 -3 -12 -4 -19 -1 -8 3 -5 6 6 6 11
1 17 -2 13 -5z m1505 -6 c-9 -9 -15 -9 -24 0 -9 9 -7 12 12 12 19 0 21 -3 12
-12z m-1515 -14 c-3 -3 -12 -4 -19 -1 -8 3 -5 6 6 6 11 1 17 -2 13 -5z m2460
0 c-3 -3 -12 -4 -19 -1 -8 3 -5 6 6 6 11 1 17 -2 13 -5z m220 0 c-3 -3 -12 -4
-19 -1 -8 3 -5 6 6 6 11 1 17 -2 13 -5z m-413 -26 c-5 -8 -1 -9 12 -5 18 7 18
7 0 -8 -11 -8 -15 -15 -8 -15 6 0 20 9 31 21 18 19 19 19 16 3 -2 -11 -4 -29
-4 -42 -1 -21 -2 -22 -17 -8 -26 26 -40 16 -36 -25 0 -3 -7 -10 -17 -16 -17
-11 -17 -9 0 25 13 25 16 39 9 46 -8 8 -14 6 -20 -4 -7 -12 -12 -12 -22 -2
-20 20 -37 14 -31 -10 4 -20 3 -21 -9 -7 -9 11 -21 13 -40 8 -16 -4 -30 -4
-32 0 -3 4 7 8 22 9 14 1 28 6 31 11 8 12 43 17 59 8 6 -5 12 -4 12 2 0 6 6 8
14 5 8 -3 17 -1 21 5 3 6 8 11 11 11 3 0 2 -5 -2 -12z m576 -10 c0 -37 -59
-83 -75 -58 -3 5 3 10 14 10 12 0 21 7 21 15 0 8 6 14 13 13 6 -2 11 5 9 15
-2 9 2 17 8 17 5 0 10 -6 10 -12z m-75 -18 c3 -5 1 -10 -4 -10 -6 0 -11 5 -11
10 0 6 2 10 4 10 3 0 8 -4 11 -10z m-875 -19 c0 -6 -4 -12 -8 -15 -5 -3 -9 1
-9 9 0 8 4 15 9 15 4 0 8 -4 8 -9z m44 0 c4 -5 -3 -7 -14 -4 -23 6 -26 13 -6
13 8 0 17 -4 20 -9z m46 -7 c0 -2 -7 -4 -15 -4 -8 0 -15 4 -15 10 0 5 7 7 15
4 8 -4 15 -8 15 -10z m-120 -6 c0 -4 -4 -8 -9 -8 -6 0 -12 4 -15 8 -3 5 1 9 9
9 8 0 15 -4 15 -9z m60 -2 c0 -3 -4 -8 -10 -11 -5 -3 -10 -1 -10 4 0 6 5 11
10 11 6 0 10 -2 10 -4z m90 -16 c0 -5 -2 -10 -4 -10 -3 0 -8 5 -11 10 -3 6 -1
10 4 10 6 0 11 -4 11 -10z m210 -4 c0 -11 -19 -15 -25 -6 -3 5 1 10 9 10 9 0
16 -2 16 -4z m90 0 c0 -2 -8 -10 -17 -17 -16 -13 -17 -12 -4 4 13 16 21 21 21
13z m580 -55 c0 -6 -4 -13 -10 -16 -5 -3 -10 1 -10 9 0 9 5 16 10 16 6 0 10
-4 10 -9z m147 -13 c-3 -8 -6 -5 -6 6 -1 11 2 17 5 13 3 -3 4 -12 1 -19z
m-246 -36 c-6 -11 -7 -23 -3 -27 4 -5 1 -5 -6 -1 -7 4 -11 10 -9 14 2 4 7 16
11 26 3 10 9 16 12 13 3 -3 1 -14 -5 -25z m243 -4 c20 -14 27 -8 22 15 -3 12
4 2 15 -21 11 -24 22 -54 23 -65 2 -12 7 -29 10 -38 4 -10 2 -36 -4 -59 -8
-30 -8 -45 0 -54 8 -10 5 -17 -13 -28 -22 -15 -22 -15 -21 24 1 41 -12 60 -22
33 -6 -14 -9 -13 -21 5 -8 12 -12 24 -9 27 3 4 6 0 6 -7 0 -7 9 -1 20 13 11
14 20 36 19 49 0 12 -3 18 -5 12 -3 -7 -15 -10 -27 -7 -22 5 -22 5 1 -14 19
-16 21 -21 10 -30 -10 -8 -21 -4 -48 18 -24 21 -29 29 -17 29 9 0 18 5 18 10
1 6 3 15 4 20 1 6 3 15 4 20 0 6 6 9 12 8 6 -2 14 3 16 10 3 6 0 12 -6 12 -6
0 -11 12 -10 28 0 16 3 21 6 12 3 -8 11 -18 17 -22z m-4284 12 c0 -5 -5 -10
-11 -10 -5 0 -7 5 -4 10 3 6 8 10 11 10 2 0 4 -4 4 -10z m4095 0 c3 -5 2 -10
-4 -10 -5 0 -13 5 -16 10 -3 6 -2 10 4 10 5 0 13 -4 16 -10z m-1633 -48 c65
-17 168 -51 230 -77 62 -26 121 -47 130 -48 9 -1 15 -3 13 -6 -3 -2 30 -27 73
-55 98 -65 274 -239 336 -334 122 -185 177 -348 207 -608 13 -117 4 -1382 -11
-1544 -7 -74 -17 -115 -36 -157 -58 -122 -182 -203 -309 -203 -92 0 -126 11
-223 69 -115 69 -150 81 -238 81 -91 0 -117 -10 -236 -93 -154 -107 -167 -112
-283 -112 -121 0 -163 17 -297 118 -100 75 -136 89 -222 90 -82 1 -125 -13
-226 -73 -47 -28 -109 -58 -139 -66 -69 -21 -169 -15 -233 14 -65 28 -134 101
-170 178 -29 61 -31 74 -39 242 -4 97 -11 422 -15 722 -8 682 1 808 78 1050
83 261 261 486 505 643 101 65 132 79 283 131 200 68 259 76 500 72 189 -4
214 -6 322 -34z m1316 -11 c10 -6 9 -10 -7 -14 -12 -3 -21 -1 -21 5 0 5 -5 6
-12 2 -7 -4 -8 -3 -4 4 8 14 26 15 44 3z m-3860 -63 c2 -101 -10 -490 -15
-485 -2 3 -7 85 -9 184 -3 98 -10 180 -15 181 -5 2 -9 8 -9 13 0 6 5 7 10 4 7
-4 9 2 5 18 -5 20 21 147 30 147 1 0 3 -28 3 -62z m3882 -12 c0 -2 -7 -7 -16
-10 -8 -3 -12 -2 -9 4 6 10 25 14 25 6z m577 -98 c-3 -7 -5 -2 -5 12 0 14 2
19 5 13 2 -7 2 -19 0 -25z m-77 -8 c0 -5 -4 -10 -10 -10 -5 0 -10 5 -10 10 0
6 5 10 10 10 6 0 10 -4 10 -10z m87 -127 c-2 -21 -4 -4 -4 37 0 41 2 58 4 38
2 -21 2 -55 0 -75z m-57 62 c0 -8 -4 -15 -10 -15 -5 0 -10 7 -10 15 0 8 5 15
10 15 6 0 10 -7 10 -15z m-25 -43 c-3 -3 -11 0 -18 7 -9 10 -8 11 6 5 10 -3
15 -9 12 -12z m90 -92 c3 -5 1 -10 -4 -10 -6 0 -11 5 -11 10 0 6 2 10 4 10 3
0 8 -4 11 -10z m2 -297 c-2 -27 -3 -5 -3 47 0 52 1 74 3 48 2 -27 2 -69 0 -95z
m-4490 55 c-2 -13 -4 -3 -4 22 0 25 2 35 4 23 2 -13 2 -33 0 -45z m0 -90 c-2
-13 -4 -3 -4 22 0 25 2 35 4 23 2 -13 2 -33 0 -45z m4490 -385 c-1 -65 -3 -14
-3 112 0 127 2 180 3 118 2 -62 2 -165 0 -230z m0 -535 c-3 -8 -6 -5 -6 6 -1
11 2 17 5 13 3 -3 4 -12 1 -19z m-4409 -1583 c-3 -3 -9 2 -12 12 -6 14 -5 15
5 6 7 -7 10 -15 7 -18z"/>
<path d="M4063 4843 c9 -2 23 -2 30 0 6 3 -1 5 -18 5 -16 0 -22 -2 -12 -5z"/>
<path d="M2095 4800 c-25 -11 -4 -15 57 -11 26 1 22 6 -12 14 -14 3 -34 1 -45
-3z"/>
<path d="M4108 4802 c-63 -3 -82 -12 -58 -27 6 -3 10 -1 10 5 0 5 13 9 30 8
26 -2 29 -5 23 -28 -6 -23 -5 -24 11 -8 19 19 48 14 40 -7 -4 -10 1 -12 15 -8
12 3 21 11 21 19 0 8 -6 11 -17 7 -10 -4 -14 -2 -10 4 4 6 -3 9 -18 7 -14 -1
-23 2 -19 7 12 20 59 8 91 -23 21 -20 33 -26 33 -17 0 22 -17 42 -28 35 -6 -3
-13 -2 -17 4 -12 19 -40 25 -107 22z"/>
<path d="M2020 4791 c0 -4 11 -6 25 -3 14 2 25 6 25 8 0 2 -11 4 -25 4 -14 0
-25 -4 -25 -9z"/>
<path d="M2692 4790 c14 -4 32 -11 40 -15 7 -3 4 1 -6 9 -11 9 -29 16 -40 15
-17 -1 -16 -2 6 -9z"/>
<path d="M3145 4790 c4 -6 11 -8 16 -5 14 9 11 15 -7 15 -8 0 -12 -5 -9 -10z"/>
<path d="M3339 4791 c10 -6 10 -10 1 -16 -6 -4 -9 -13 -6 -21 4 -11 1 -11 -18
1 -19 13 -25 13 -34 2 -7 -8 -7 -18 -2 -27 9 -13 10 -13 11 0 1 8 1 19 0 23
-1 5 3 5 9 2 6 -4 9 -12 7 -19 -2 -6 6 -12 18 -12 19 -1 23 3 19 19 -2 11 4
29 13 39 15 17 15 18 -8 18 -17 0 -20 -3 -10 -9z"/>
<path d="M3381 4796 c12 -10 59 -15 59 -6 0 5 -14 10 -32 10 -17 0 -29 -2 -27
-4z"/>
<path d="M3454 4778 c1 -13 -2 -28 -6 -34 -5 -7 -2 -17 7 -24 13 -11 14 -10 8
5 -5 15 -3 17 11 12 15 -6 17 -3 13 13 -3 11 -2 20 2 20 4 0 8 7 8 15 0 9 -9
15 -22 15 -17 0 -22 -5 -21 -22z"/>
<path d="M3593 4793 c15 -2 37 -2 50 0 12 2 0 4 -28 4 -27 0 -38 -2 -22 -4z"/>
<path d="M3672 4795 c10 -11 48 -14 53 -4 4 5 -8 9 -26 9 -18 0 -30 -2 -27 -5z"/>
<path d="M3940 4791 c0 -4 11 -6 25 -3 14 2 25 6 25 8 0 2 -11 4 -25 4 -14 0
-25 -4 -25 -9z"/>
<path d="M2820 4769 c0 -5 5 -7 10 -4 6 3 10 8 10 11 0 2 -4 4 -10 4 -5 0 -10
-5 -10 -11z"/>
<path d="M4017 4773 c-10 -9 -9 -23 1 -23 5 0 9 7 9 15 0 17 -1 18 -10 8z"/>
<path d="M1476 4762 c-3 -6 -1 -14 5 -17 14 -9 20 -2 10 14 -6 8 -11 9 -15 3z"/>
<path d="M2564 4752 c4 -3 14 -7 22 -8 9 -1 13 0 10 4 -4 3 -14 7 -22 8 -9 1
-13 0 -10 -4z"/>
<path d="M3220 4750 c0 -7 24 -20 36 -20 13 0 1 19 -16 23 -11 3 -20 2 -20 -3z"/>
<path d="M4285 4750 c-3 -5 -2 -10 4 -10 5 0 13 5 16 10 3 6 2 10 -4 10 -5 0
-13 -4 -16 -10z"/>
<path d="M2700 4732 c0 -4 9 -13 20 -19 16 -11 18 -10 14 1 -6 15 -34 30 -34
18z"/>
<path d="M4130 4729 c0 -5 5 -7 10 -4 6 3 10 8 10 11 0 2 -4 4 -10 4 -5 0 -10
-5 -10 -11z"/>
<path d="M2682 4710 c0 -14 2 -19 5 -12 2 6 2 18 0 25 -3 6 -5 1 -5 -13z"/>
<path d="M3808 4723 c-10 -2 -18 -9 -18 -14 0 -14 16 -11 30 6 7 8 11 14 9 14
-2 -1 -12 -3 -21 -6z"/>
<path d="M3555 4710 c3 -5 11 -10 16 -10 6 0 7 5 4 10 -3 6 -11 10 -16 10 -6
0 -7 -4 -4 -10z"/>
<path d="M4151 4706 c-9 -11 -9 -16 1 -22 7 -4 10 -4 6 1 -4 4 -3 14 3 22 6 7
9 13 6 13 -2 0 -10 -6 -16 -14z"/>
<path d="M4290 4711 c0 -6 4 -13 10 -16 6 -3 7 1 4 9 -7 18 -14 21 -14 7z"/>
<path d="M4055 4692 c2 -9 4 -21 4 -25 1 -5 6 -5 11 -2 15 9 12 32 -4 38 -9 4
-13 0 -11 -11z"/>
<path d="M3204 4689 c-4 -7 -3 -9 4 -5 5 3 13 0 15 -6 4 -9 6 -10 6 -1 1 17
-16 25 -25 12z"/>
<path d="M2599 4673 c-13 -17 -13 -17 6 -3 11 8 22 16 24 17 2 2 0 3 -6 3 -6
0 -17 -8 -24 -17z"/>
<path d="M3940 4676 c0 -2 6 -9 13 -15 10 -8 14 -7 14 4 0 8 -6 15 -14 15 -7
0 -13 -2 -13 -4z"/>
<path d="M4005 4670 c-3 -6 1 -7 9 -4 18 7 21 14 7 14 -6 0 -13 -4 -16 -10z"/>
<path d="M2280 4660 c0 -5 5 -10 10 -10 6 0 10 5 10 10 0 6 -4 10 -10 10 -5 0
-10 -4 -10 -10z"/>
<path d="M4420 4659 c0 -5 5 -7 10 -4 6 3 10 8 10 11 0 2 -4 4 -10 4 -5 0 -10
-5 -10 -11z"/>
<path d="M3786 4644 c-3 -8 -2 -12 3 -9 5 3 12 -3 14 -12 3 -10 4 -6 4 10 -1
30 -12 36 -21 11z"/>
<path d="M3255 4640 c-3 -5 -1 -10 4 -10 6 0 11 5 11 10 0 6 -2 10 -4 10 -3 0
-8 -4 -11 -10z"/>
<path d="M3536 4633 c-11 -11 -7 -20 9 -20 8 0 15 4 15 8 0 11 -16 20 -24 12z"/>
<path d="M3580 4620 c0 -5 7 -10 15 -10 8 0 15 5 15 10 0 6 -7 10 -15 10 -8 0
-15 -4 -15 -10z"/>
<path d="M4450 4610 c-9 -6 -10 -10 -3 -10 6 0 15 5 18 10 8 12 4 12 -15 0z"/>
<path d="M3880 4601 c0 -6 4 -13 10 -16 6 -3 7 1 4 9 -7 18 -14 21 -14 7z"/>
<path d="M2490 4592 c0 -10 21 -32 31 -32 4 0 9 9 12 20 4 16 0 20 -19 20 -13
0 -24 -4 -24 -8z"/>
<path d="M2568 4588 c5 -5 16 -8 23 -6 8 3 3 7 -10 11 -17 4 -21 3 -13 -5z"/>
<path d="M4011 4582 c-8 -15 -7 -23 3 -32 12 -9 14 -7 9 12 -4 18 -2 20 6 8 5
-8 13 -11 17 -7 4 4 1 15 -8 23 -15 15 -17 15 -27 -4z"/>
<path d="M3829 4573 c-13 -16 -12 -17 4 -4 9 7 17 15 17 17 0 8 -8 3 -21 -13z"/>
<path d="M3700 4560 c0 -5 7 -7 15 -4 8 4 15 8 15 10 0 2 -7 4 -15 4 -8 0 -15
-4 -15 -10z"/>
<path d="M3785 4550 c3 -5 8 -10 11 -10 2 0 4 5 4 10 0 6 -5 10 -11 10 -5 0
-7 -4 -4 -10z"/>
<path d="M3585 4541 c-3 -5 -1 -12 5 -16 5 -3 10 1 10 9 0 18 -6 21 -15 7z"/>
<path d="M4190 4540 c-8 -5 -12 -12 -9 -15 4 -3 12 1 19 10 14 17 11 19 -10 5z"/>
<path d="M4225 4541 c-6 -11 9 -23 19 -14 9 9 7 23 -3 23 -6 0 -12 -4 -16 -9z"/>
<path d="M4310 4539 c0 -6 -6 -7 -12 -3 -7 4 -10 3 -5 -1 11 -13 87 -15 87 -3
0 5 -6 8 -12 5 -7 -2 -23 0 -35 4 -15 5 -23 5 -23 -2z"/>
<path d="M2705 4530 c-3 -5 1 -10 9 -10 9 0 16 5 16 10 0 6 -4 10 -9 10 -6 0
-13 -4 -16 -10z"/>
<path d="M2750 4528 c0 -4 7 -8 15 -8 8 0 15 4 15 8 0 5 -7 9 -15 9 -8 0 -15
-4 -15 -9z"/>
<path d="M3370 4530 c0 -5 5 -10 11 -10 5 0 7 5 4 10 -3 6 -8 10 -11 10 -2 0
-4 -4 -4 -10z"/>
<path d="M3640 4531 c0 -5 10 -11 21 -14 15 -4 20 -11 15 -22 -3 -9 -2 -14 3
-11 15 10 20 45 6 40 -7 -3 -16 -1 -20 5 -8 13 -25 14 -25 2z"/>
<path d="M3780 4521 c-8 -6 -18 -7 -24 -4 -5 4 -6 1 -2 -6 5 -7 10 -10 13 -7
3 3 15 0 27 -6 18 -10 19 -9 9 4 -7 8 -10 18 -6 21 9 10 0 8 -17 -2z"/>
<path d="M3725 4510 c3 -5 8 -10 11 -10 2 0 4 5 4 10 0 6 -5 10 -11 10 -5 0
-7 -4 -4 -10z"/>
<path d="M4020 4510 c-12 -7 -10 -9 7 -7 12 0 19 5 17 9 -6 10 -6 10 -24 -2z"/>
<path d="M2656 4498 c3 -4 9 -8 15 -8 5 0 9 4 9 8 0 5 -7 9 -15 9 -8 0 -12 -4
-9 -9z"/>
<path d="M2744 4502 c4 -3 14 -7 22 -8 9 -1 13 0 10 4 -4 3 -14 7 -22 8 -9 1
-13 0 -10 -4z"/>
<path d="M3706 4497 c3 -10 9 -15 12 -12 3 3 0 11 -7 18 -10 9 -11 8 -5 -6z"/>
<path d="M3825 4490 c-3 -5 -1 -10 4 -10 6 0 11 5 11 10 0 6 -2 10 -4 10 -3 0
-8 -4 -11 -10z"/>
<path d="M4026 4482 c-3 -5 1 -9 9 -9 8 0 12 4 9 9 -3 4 -7 8 -9 8 -2 0 -6 -4
-9 -8z"/>
<path d="M4600 4480 c0 -5 4 -10 9 -10 6 0 13 5 16 10 3 6 -1 10 -9 10 -9 0
-16 -4 -16 -10z"/>
<path d="M4650 4480 c-9 -6 -10 -10 -3 -10 6 0 15 5 18 10 8 12 4 12 -15 0z"/>
<path d="M3400 4471 c0 -5 9 -7 20 -4 11 3 20 7 20 9 0 2 -9 4 -20 4 -11 0
-20 -4 -20 -9z"/>
<path d="M3654 4472 c3 -5 0 -13 -6 -15 -8 -3 -6 -6 5 -6 19 -1 23 14 5 25 -6
4 -8 3 -4 -4z"/>
<path d="M3730 4470 c0 -5 5 -10 11 -10 5 0 7 5 4 10 -3 6 -8 10 -11 10 -2 0
-4 -4 -4 -10z"/>
<path d="M4268 4473 c7 -3 16 -2 19 1 4 3 -2 6 -13 5 -11 0 -14 -3 -6 -6z"/>
<path d="M4820 4299 c0 -5 5 -7 10 -4 6 3 10 8 10 11 0 2 -4 4 -10 4 -5 0 -10
-5 -10 -11z"/>
<path d="M1975 4730 c-3 -5 -2 -10 4 -10 5 0 13 5 16 10 3 6 2 10 -4 10 -5 0
-13 -4 -16 -10z"/>
<path d="M2225 4590 c-3 -5 -1 -10 4 -10 6 0 11 5 11 10 0 6 -2 10 -4 10 -3 0
-8 -4 -11 -10z"/>
<path d="M2065 4570 c3 -5 10 -10 16 -10 5 0 9 5 9 10 0 6 -7 10 -16 10 -8 0
-12 -4 -9 -10z"/>
<path d="M2086 4505 c4 -8 8 -15 10 -15 2 0 4 7 4 15 0 8 -4 15 -10 15 -5 0
-7 -7 -4 -15z"/>
<path d="M1953 3356 c-17 -8 -36 -23 -42 -35 -7 -13 -11 -119 -11 -303 1 -366
-12 -348 232 -348 255 0 251 -7 246 377 l-3 263 -28 27 -27 28 -168 2 c-127 2
-175 -1 -199 -11z"/>
<path d="M3062 3355 c-57 -25 -62 -52 -62 -342 0 -240 1 -260 20 -291 11 -18
32 -37 46 -42 14 -6 96 -10 182 -10 132 0 162 3 182 17 50 34 49 31 50 336 l0
289 -29 29 -29 29 -164 0 c-118 -1 -172 -5 -196 -15z"/>
</g>
</svg>
